# Blender v2.93.4 OBJ File: 'kitchen.blend'
# www.blender.org
mtllib kitchen.mtl
usemtl ceiling
v -4.613 3.405 -7.040
v -3.378 3.405 -8.344
v -4.570 3.405 -7.028
v -1.375 3.405 4.081
v -1.332 3.405 4.094
v -1.740 3.405 8.941
v -1.099 3.405 3.745
v -1.127 3.405 3.711
v 7.704 3.405 4.082
v -4.846 3.405 -6.691
v -4.818 3.405 -6.657
v -6.578 3.405 -5.221
v -6.541 3.405 1.305
v -6.008 3.405 1.409
v -6.129 3.405 1.409
v -1.288 3.403 1.495
v 20.332 3.393 1.889
v 27.438 6.443 3.086
v 27.690 6.443 3.079
v 29.547 6.443 4.191
v 29.547 6.443 1.889
v 26.276 9.539 -2.432
v 29.547 9.540 -2.432
v 27.785 6.443 2.651
v 27.564 6.443 2.598
v 24.702 6.441 4.191
v 24.701 6.443 1.889
v 20.332 3.405 6.544
v 20.332 3.393 4.191
v -6.606 3.405 -4.934
v -6.578 3.405 -4.969
v -4.195 3.405 -2.262
v -1.601 3.403 1.321
v -6.579 3.405 1.179
v -6.608 3.405 1.144
v -1.078 3.403 1.439
v 0.928 3.405 -8.344
v 4.123 3.405 -11.586
v 8.814 3.405 -11.586
v 12.006 3.405 -8.394
v 16.181 3.405 -8.394
v 20.331 3.405 -7.396
v 20.331 3.405 -8.394
v -1.059 3.405 -5.095
v -5.875 3.405 -8.344
v -4.657 3.405 -7.045
v -1.287 3.405 -5.323
v -6.990 3.405 -5.139
v -6.994 3.405 -5.095
v -11.515 3.405 -8.344
v -6.977 3.405 -5.182
v -6.893 3.405 -5.284
v -1.064 3.405 -5.140
v -1.077 3.405 -5.182
v -6.956 3.405 -5.221
v -6.928 3.405 -5.256
v -1.098 3.405 -5.222
v -1.126 3.405 -5.256
v -6.854 3.405 -5.305
v -1.160 3.405 -5.284
v -1.200 3.405 -5.305
v -6.812 3.405 -5.318
v -6.767 3.405 -5.322
v -1.242 3.405 -5.318
v -6.723 3.405 -5.318
v -4.884 3.405 -6.818
v -6.680 3.405 -5.305
v -4.880 3.405 -6.862
v -1.331 3.405 -5.318
v -1.374 3.405 -5.305
v -4.867 3.405 -6.905
v -1.413 3.405 -5.284
v -1.447 3.405 -5.256
v -4.430 3.405 -6.818
v -4.434 3.405 -6.862
v -4.846 3.405 -6.944
v -4.818 3.405 -6.978
v -4.447 3.405 -6.905
v -4.783 3.405 -7.007
v -4.744 3.405 -7.028
v -4.468 3.405 -6.944
v -4.496 3.405 -6.978
v -4.701 3.405 -7.040
v -4.531 3.405 -7.007
v 20.332 3.405 7.089
v 20.332 3.405 8.931
v 11.684 3.405 8.931
v 7.628 3.405 8.931
v -1.099 3.405 3.998
v -5.560 3.405 8.941
v -1.449 3.405 4.032
v -1.127 3.405 4.032
v -1.162 3.405 4.060
v -1.061 3.405 3.871
v -1.065 3.405 3.916
v -1.078 3.405 3.958
v -11.515 3.405 8.941
v -1.515 3.405 3.871
v -1.511 3.405 3.916
v -1.498 3.405 3.958
v -1.477 3.405 3.998
v -1.201 3.405 4.081
v -1.244 3.405 4.094
v -1.414 3.405 4.060
v -1.288 3.405 4.099
v -1.511 3.405 3.827
v -6.724 3.405 1.528
v -6.813 3.405 1.528
v -6.855 3.405 1.515
v -6.996 3.405 1.305
v -6.991 3.405 1.349
v -6.978 3.405 1.392
v -1.498 3.405 3.784
v -6.768 3.405 1.532
v -1.477 3.405 3.745
v -6.957 3.405 1.431
v -6.929 3.405 1.466
v -1.449 3.405 3.711
v -1.414 3.405 3.682
v -6.895 3.405 1.494
v -1.375 3.405 3.661
v -1.332 3.405 3.649
v -1.288 3.405 3.644
v -1.244 3.405 3.649
v -6.681 3.405 1.515
v -1.201 3.405 3.661
v -6.642 3.405 1.494
v -6.608 3.405 1.466
v -6.579 3.405 1.431
v -6.558 3.405 1.392
v -1.065 3.405 3.827
v -1.078 3.405 3.784
v -1.162 3.405 3.682
v -4.434 3.405 -6.773
v -1.476 3.405 -5.222
v -1.497 3.405 -5.182
v -4.447 3.405 -6.731
v -1.510 3.405 -5.140
v -1.514 3.405 -5.095
v -4.496 3.405 -6.657
v -6.540 3.405 -5.095
v -4.613 3.405 -6.595
v -4.570 3.405 -6.608
v -4.468 3.405 -6.691
v -4.531 3.405 -6.629
v -6.544 3.405 -5.139
v -4.744 3.405 -6.608
v -6.557 3.405 -5.182
v -4.783 3.405 -6.629
v -4.657 3.405 -6.590
v -4.701 3.405 -6.595
v -6.606 3.405 -5.256
v -6.641 3.405 -5.284
v -4.867 3.405 -6.731
v -4.880 3.405 -6.773
v -6.546 3.405 1.349
v 26.276 6.443 1.889
v 27.321 6.443 2.934
v 27.322 6.443 2.626
v 27.801 6.443 2.963
v 27.832 6.443 2.931
v -1.064 3.405 -5.051
v -3.688 3.405 -2.000
v -1.126 3.405 -4.935
v -3.783 3.405 -2.192
v -1.374 3.405 -4.885
v -1.160 3.405 -4.906
v -3.995 3.405 -2.312
v -1.476 3.405 -4.969
v -1.077 3.405 -5.008
v -1.098 3.405 -4.969
v -1.200 3.405 -4.885
v -1.242 3.405 -4.872
v -4.303 3.405 -2.006
v -6.723 3.405 -4.872
v -6.928 3.405 -4.934
v -1.287 3.405 -4.868
v -6.557 3.405 -5.008
v -1.331 3.405 -4.872
v -6.990 3.405 -5.050
v -6.977 3.405 -5.008
v -6.956 3.405 -4.969
v -1.413 3.405 -4.906
v -1.447 3.405 -4.935
v -6.893 3.405 -4.906
v -6.854 3.405 -4.885
v -1.497 3.405 -5.008
v -6.812 3.405 -4.872
v -6.767 3.405 -4.868
v -1.510 3.405 -5.051
v -6.544 3.405 -5.050
v -6.680 3.405 -4.885
v -6.641 3.405 -4.906
v -6.855 3.405 1.095
v -4.241 3.405 -1.798
v -6.724 3.405 1.082
v -6.895 3.405 1.116
v -6.991 3.405 1.261
v -6.978 3.405 1.218
v -6.957 3.405 1.179
v -6.929 3.405 1.144
v -6.813 3.405 1.082
v -6.768 3.405 1.078
v -3.999 3.405 -1.703
v -3.789 3.405 -1.740
v -1.280 3.403 0.911
v -1.034 3.403 1.016
v -1.568 3.403 1.070
v -6.681 3.405 1.095
v -0.996 3.403 1.240
v -6.642 3.405 1.116
v -6.546 3.405 1.261
v -6.558 3.405 1.218
vT -0.926 0.000 0.376
vT -0.811 0.000 0.585
vT -0.410 0.000 0.912
vT 0.107 0.000 0.994
vT -0.353 0.000 0.936
vT -0.377 -0.000 0.926
vT -0.312 -0.000 0.950
vT -0.772 -0.000 0.636
vT -0.863 0.001 0.505
vT -0.146 0.000 0.989
vT -0.547 0.000 0.837
vT -0.146 0.000 0.989
vT -0.995 0.000 0.095
vT -0.988 0.000 0.155
vT -0.944 0.000 0.329
vT -0.271 0.002 0.963
vT -0.825 -0.019 0.565
vT -0.865 0.000 -0.502
vT -0.974 0.000 -0.227
vT -0.958 -0.000 0.287
vT -0.765 -0.126 0.632
vT -0.787 -0.359 0.501
vT -0.239 -0.566 0.789
vT -0.337 0.000 0.942
vT -0.732 0.000 0.681
vT -0.479 -0.081 0.874
vT 0.201 0.245 0.949
vT -0.918 0.003 0.397
vT -0.780 -0.214 0.588
vT -0.501 0.000 0.866
vT -0.998 0.000 -0.069
vT -0.724 0.000 0.690
vT -0.926 0.000 0.378
vT -0.945 0.000 -0.328
vT -0.703 0.000 0.711
vT 0.285 -0.000 0.959
vT -0.729 0.000 0.685
vT -0.815 0.000 0.579
vT -0.900 0.000 0.436
vT -0.984 0.000 0.176
vT -1.000 0.000 -0.000
vT -0.996 -0.000 0.092
vT -1.000 0.000 -0.000
vT -0.959 0.000 0.284
vT -0.932 0.000 -0.362
vT -0.991 0.000 0.137
vT -0.959 0.000 0.285
vT -0.970 0.000 0.242
vT -0.985 0.000 -0.173
vT -0.988 -0.000 -0.156
vT -0.977 0.000 0.214
vT -0.904 0.000 -0.427
vT -0.529 0.000 0.849
vT -0.537 0.000 0.844
vT -0.982 0.000 0.189
vT -0.987 0.000 0.164
vT -0.545 0.000 0.838
vT -0.555 0.000 0.832
vT 0.646 0.000 -0.764
vT -0.565 0.000 0.825
vT -0.574 0.000 0.819
vT 0.839 0.000 -0.545
vT 0.999 0.000 0.044
vT -0.583 0.000 0.812
vT -0.706 0.000 0.708
vT -0.983 0.000 0.182
vT -0.454 0.000 0.891
vT -0.933 0.000 -0.361
vT -0.997 0.000 -0.075
vT -0.990 0.000 -0.144
vT -0.961 0.000 -0.275
vT -0.978 0.000 -0.211
vT -0.865 0.000 0.503
vT -0.405 0.000 0.914
vT -0.312 0.000 0.950
vT -0.981 0.000 -0.194
vT -0.992 0.000 -0.126
vT -0.237 0.000 0.972
vT -0.996 0.000 -0.085
vT -0.999 0.000 -0.040
vT -0.137 0.000 0.991
vT 0.012 0.000 1.000
vT -1.000 0.000 -0.012
vT 0.240 0.000 0.971
vT -0.986 -0.000 0.165
vT -0.636 0.000 0.772
vT -0.944 -0.000 0.330
vT -0.999 -0.000 0.039
vT -0.970 -0.000 0.245
vT -0.169 0.000 0.986
vT 0.206 0.000 0.979
vT -0.334 0.000 0.942
vT -0.558 0.000 0.830
vT -0.972 -0.000 0.235
vT -0.942 -0.000 0.336
vT -0.995 -0.000 -0.095
vT -0.656 -0.000 0.755
vT -0.926 0.000 0.376
vT -0.628 0.000 0.778
vT -0.632 0.000 0.775
vT -0.637 0.000 0.771
vT -0.619 0.000 0.785
vT -0.679 0.000 0.734
vT 0.033 0.000 0.999
vT -0.741 0.000 0.672
vT -0.931 0.000 0.365
vT -0.965 0.000 0.264
vT -0.763 -0.000 0.646
vT -0.760 -0.000 0.650
vT -0.978 -0.000 -0.210
vT -0.512 -0.000 0.859
vT -0.516 -0.000 0.857
vT -0.947 0.000 0.321
vT -0.540 -0.000 0.842
vT -0.959 0.000 0.282
vT -0.519 -0.000 0.855
vT -0.523 -0.000 0.852
vT -0.970 0.000 0.242
vT -0.980 0.000 0.199
vT -0.528 -0.000 0.849
vT -0.989 0.000 0.148
vT -0.996 0.000 0.084
vT -1.000 -0.000 -0.005
vT -0.990 -0.000 -0.142
vT -0.961 0.000 0.277
vT -0.992 -0.000 -0.126
vT -0.905 0.000 0.425
vT -0.869 0.000 0.495
vT -0.839 0.000 0.544
vT -0.960 0.000 0.279
vT -0.632 -0.000 0.775
vT -0.510 -0.000 0.860
vT -1.000 -0.000 -0.016
vT -0.291 0.000 0.957
vT -0.742 0.000 0.670
vT -0.701 0.000 0.713
vT -0.194 0.000 0.981
vT -0.940 0.000 0.342
vT -1.000 0.000 -0.000
vT -0.955 0.000 0.296
vT -0.955 0.000 0.298
vT -0.725 0.000 0.689
vT -0.627 0.000 0.779
vT -0.714 0.000 0.700
vT -0.993 0.000 -0.115
vT -0.656 0.000 0.755
vT -0.861 0.000 0.509
vT -0.626 0.000 0.780
vT -0.886 0.000 0.464
vT -0.916 0.000 0.402
vT -0.942 0.000 0.335
vT -0.075 0.000 0.997
vT -0.088 0.000 0.996
vT -0.325 0.000 0.946
vT -0.454 0.000 0.891
vT -0.951 0.000 0.309
vT -0.566 -0.000 0.825
vT 0.896 0.000 0.444
vT -0.129 0.000 0.992
vT -0.501 0.000 0.865
vT -0.421 0.000 0.907
vT -0.854 -0.001 0.520
vT -0.862 0.000 0.506
vT -0.946 0.000 0.325
vT -0.798 -0.000 0.603
vT -0.802 -0.000 0.597
vT -0.745 -0.000 0.667
vT -0.998 0.000 -0.062
vT -0.965 0.000 0.262
vT -0.904 0.000 0.428
vT -0.927 0.000 0.374
vT -0.796 -0.000 0.605
vT -0.839 -0.000 0.544
vT -0.209 0.000 0.978
vT -0.020 0.000 1.000
vT -0.794 0.000 0.608
vT -0.879 -0.000 0.478
vT -0.912 0.000 0.410
vT -0.916 -0.000 0.402
vT -0.818 0.000 -0.575
vT -0.814 0.000 -0.581
vT -0.809 0.000 -0.588
vT -0.985 0.000 0.172
vT -1.000 0.000 -0.006
vT 0.644 0.000 0.765
vT 0.627 0.000 0.779
vT -0.801 0.000 -0.598
vT 0.613 0.000 0.790
vT 0.602 0.000 0.799
vT -0.439 0.000 -0.898
vT -0.733 0.000 0.680
vT 0.434 0.000 0.901
vT 0.521 0.000 0.854
vT -0.205 0.000 0.979
vT -0.703 -0.000 0.711
vT -0.771 0.000 0.636
vT -0.704 0.000 0.710
vT -0.731 0.000 -0.682
vT -0.789 0.000 -0.614
vT -0.840 0.000 -0.543
vT -0.884 0.000 -0.467
vT -0.836 0.000 0.549
vT -0.876 0.000 0.482
vT -0.700 0.000 0.715
vT -0.896 0.000 0.445
vT -0.490 -0.000 0.872
vT -0.925 0.000 0.380
vT -0.735 0.000 0.678
vT -0.955 0.000 0.295
vT -0.960 0.000 0.281
vT -0.733 0.000 0.680
vT -0.978 0.000 -0.207
vT -0.962 0.000 -0.272
vt -0.80 -2.23
vt -1.03 -2.01
vt -0.80 -2.22
vt 1.21 -1.65
vt 1.21 -1.64
vt 2.08 -1.71
vt 1.15 -1.60
vt 1.14 -1.60
vt 1.21 -0.01
vt -0.74 -2.27
vt -0.73 -2.27
vt -0.47 -2.59
vt 0.71 -2.58
vt 0.73 -2.48
vt 0.73 -2.50
vt 0.73 -1.64
vt 0.73 2.22
vt 0.98 4.01
vt 0.97 4.05
vt 1.21 4.10
vt 0.73 4.23
vt 0.08 3.80
vt 0.08 4.05
vt 0.88 4.12
vt 0.87 4.11
vt 1.21 3.36
vt 0.73 3.80
vt 1.65 2.27
vt 1.21 2.22
vt -0.42 -2.59
vt -0.42 -2.59
vt 0.06 -2.15
vt 0.70 -1.70
vt 0.68 -2.59
vt 0.68 -2.59
vt 0.71 -1.60
vt -1.03 -1.23
vt -1.62 -0.66
vt -1.62 0.19
vt -1.04 0.77
vt -1.04 1.52
vt -0.86 2.64
vt -1.04 2.50
vt -0.45 -1.59
vt -1.03 -2.46
vt -0.80 -2.24
vt -0.49 -1.63
vt -0.46 -2.66
vt -0.45 -2.66
vt -1.03 -3.48
vt -0.46 -2.66
vt -0.48 -2.64
vt -0.46 -1.59
vt -0.46 -1.59
vt -0.47 -2.65
vt -0.48 -2.65
vt -0.47 -1.60
vt -0.48 -1.60
vt -0.49 -2.64
vt -0.48 -1.61
vt -0.49 -1.62
vt -0.49 -2.63
vt -0.49 -2.62
vt -0.49 -1.62
vt -0.49 -2.61
vt -0.76 -2.28
vt -0.49 -2.60
vt -0.77 -2.28
vt -0.49 -1.64
vt -0.49 -1.65
vt -0.77 -2.28
vt -0.48 -1.65
vt -0.48 -1.66
vt -0.76 -2.20
vt -0.77 -2.20
vt -0.78 -2.27
vt -0.79 -2.27
vt -0.77 -2.20
vt -0.79 -2.26
vt -0.80 -2.25
vt -0.78 -2.21
vt -0.79 -2.21
vt -0.80 -2.25
vt -0.79 -2.22
vt 1.75 2.27
vt 2.08 2.27
vt 2.08 0.71
vt 2.08 -0.02
vt 1.19 -1.60
vt 2.08 -2.40
vt 1.20 -1.66
vt 1.20 -1.60
vt 1.20 -1.61
vt 1.17 -1.59
vt 1.18 -1.59
vt 1.19 -1.59
vt 2.08 -3.48
vt 1.17 -1.67
vt 1.18 -1.67
vt 1.19 -1.67
vt 1.19 -1.67
vt 1.21 -1.62
vt 1.21 -1.62
vt 1.20 -1.65
vt 1.21 -1.63
vt 1.16 -1.67
vt 0.75 -2.61
vt 0.75 -2.63
vt 0.74 -2.64
vt 0.71 -2.66
vt 0.71 -2.66
vt 0.72 -2.66
vt 1.15 -1.67
vt 0.75 -2.62
vt 1.15 -1.67
vt 0.73 -2.65
vt 0.74 -2.65
vt 1.14 -1.66
vt 1.14 -1.65
vt 0.74 -2.64
vt 1.13 -1.65
vt 1.13 -1.64
vt 1.13 -1.63
vt 1.13 -1.62
vt 0.74 -2.60
vt 1.13 -1.62
vt 0.74 -2.60
vt 0.74 -2.59
vt 0.73 -2.59
vt 0.72 -2.58
vt 1.16 -1.59
vt 1.15 -1.59
vt 1.14 -1.61
vt -0.75 -2.20
vt -0.47 -1.67
vt -0.46 -1.67
vt -0.74 -2.20
vt -0.46 -1.67
vt -0.45 -1.67
vt -0.73 -2.21
vt -0.45 -2.58
vt -0.72 -2.23
vt -0.72 -2.22
vt -0.74 -2.21
vt -0.72 -2.22
vt -0.46 -2.58
vt -0.72 -2.25
vt -0.46 -2.58
vt -0.72 -2.26
vt -0.72 -2.24
vt -0.72 -2.25
vt -0.48 -2.59
vt -0.48 -2.60
vt -0.74 -2.28
vt -0.75 -2.28
vt 0.71 -2.58
vt 0.73 4.10
vt 0.94 4.03
vt 0.88 4.10
vt 0.95 4.10
vt 0.94 4.10
vt -0.44 -1.59
vt 0.11 -2.06
vt -0.42 -1.60
vt 0.07 -2.08
vt -0.41 -1.65
vt -0.41 -1.61
vt 0.05 -2.12
vt -0.42 -1.67
vt -0.43 -1.59
vt -0.42 -1.60
vt -0.41 -1.62
vt -0.41 -1.62
vt 0.11 -2.17
vt -0.41 -2.61
vt -0.42 -2.65
vt -0.41 -1.63
vt -0.43 -2.58
vt -0.41 -1.64
vt -0.44 -2.66
vt -0.43 -2.66
vt -0.42 -2.65
vt -0.41 -1.65
vt -0.42 -1.66
vt -0.41 -2.64
vt -0.41 -2.64
vt -0.43 -1.67
vt -0.41 -2.63
vt -0.41 -2.62
vt -0.44 -1.67
vt -0.44 -2.58
vt -0.41 -2.60
vt -0.41 -2.60
vt 0.67 -2.64
vt 0.14 -2.16
vt 0.67 -2.61
vt 0.67 -2.64
vt 0.70 -2.66
vt 0.69 -2.66
vt 0.68 -2.65
vt 0.68 -2.65
vt 0.67 -2.63
vt 0.67 -2.62
vt 0.16 -2.12
vt 0.15 -2.08
vt 0.62 -1.64
vt 0.64 -1.59
vt 0.65 -1.69
vt 0.67 -2.60
vt 0.68 -1.59
vt 0.67 -2.60
vt 0.70 -2.58
vt 0.69 -2.58
vn 0.00 -1.00 0.00
vn -0.00 -1.00 0.00
vn 0.00 -0.81 -0.58
vn 0.57 -0.82 -0.00
vn -0.00 -1.00 0.01
vn -0.00 -1.00 -0.00
vn -0.00 -1.00 0.00
vn 0.00 -1.00 -0.00
vn -0.00 -1.00 -0.00
vn 0.00 -1.00 -0.00
vn 0.00 -1.00 -0.00
vn 0.00 -0.81 -0.58
vn 0.57 -0.82 0.00
vn -0.00 -1.00 -0.00
vn -0.00 -1.00 -0.00
vn -0.00 -1.00 -0.00
vn -0.00 -1.00 -0.00
vn -0.00 -1.00 -0.00
vn -0.00 -1.00 -0.00
vn -0.00 -1.00 -0.00
vn -0.00 -1.00 -0.00
o ceiling.002_Cube.007
f 1/1/1 2/2/1 3/3/1
f 4/4/1 5/5/1 6/6/1
f 7/7/1 8/8/1 9/9/1
f 10/10/1 11/11/1 12/12/1
f 13/13/1 14/14/1 15/15/1
f 9/9/2 16/16/2 17/17/2
f 18/18/1 19/19/1 20/20/1
f 21/21/3 22/22/3 23/23/3
f 24/24/1 25/25/1 21/21/1
f 26/26/4 17/17/4 27/27/4
f 28/28/5 9/9/5 29/29/5
f 30/30/1 31/31/1 32/32/1
f 14/14/6 33/33/6 16/16/6
f 14/14/1 34/34/1 35/35/1
f 36/36/6 17/17/6 16/16/6
f 37/37/1 38/38/1 39/39/1
f 40/40/1 41/41/1 42/42/1
f 41/41/1 43/43/1 42/42/1
f 40/40/1 44/44/1 37/37/1
f 37/37/1 39/39/1 40/40/1
f 45/45/1 2/2/1 46/46/1
f 2/2/1 37/37/1 47/47/1
f 46/46/1 2/2/1 1/1/1
f 48/48/1 49/49/1 50/50/1
f 51/51/1 48/48/1 50/50/1
f 50/50/1 45/45/1 52/52/1
f 44/44/1 40/40/1 42/42/1
f 37/37/1 44/44/1 53/53/1
f 37/37/1 53/53/1 54/54/1
f 55/55/1 51/51/1 50/50/1
f 56/56/1 55/55/1 50/50/1
f 37/37/1 54/54/1 57/57/1
f 37/37/1 57/57/1 58/58/1
f 52/52/1 56/56/1 50/50/1
f 59/59/1 52/52/1 45/45/1
f 37/37/1 58/58/1 60/60/1
f 37/37/1 60/60/1 61/61/1
f 62/62/1 59/59/1 45/45/1
f 63/63/1 62/62/1 45/45/1
f 37/37/1 61/61/1 64/64/1
f 37/37/1 64/64/1 47/47/1
f 65/65/1 63/63/1 45/45/1
f 66/66/1 67/67/1 65/65/1
f 68/68/1 66/66/1 45/45/1
f 66/66/1 65/65/1 45/45/1
f 47/47/1 69/69/1 2/2/1
f 69/69/1 70/70/1 2/2/1
f 71/71/1 68/68/1 45/45/1
f 70/70/1 72/72/1 2/2/1
f 72/72/1 73/73/1 2/2/1
f 73/73/1 74/74/1 2/2/1
f 74/74/1 75/75/1 2/2/1
f 76/76/1 71/71/1 45/45/1
f 77/77/1 76/76/1 45/45/1
f 75/75/1 78/78/1 2/2/1
f 79/79/1 77/77/1 45/45/1
f 80/80/1 79/79/1 45/45/1
f 78/78/1 81/81/1 2/2/1
f 81/81/1 82/82/1 2/2/1
f 83/83/1 80/80/1 45/45/1
f 46/46/1 83/83/1 45/45/1
f 82/82/1 84/84/1 2/2/1
f 84/84/1 3/3/1 2/2/1
f 85/85/1 86/86/1 87/87/1
f 88/88/1 6/6/1 89/89/1
f 6/6/1 90/90/1 91/91/1
f 92/92/1 6/6/1 93/93/1
f 85/85/1 87/87/1 94/94/1
f 87/87/1 88/88/1 94/94/1
f 95/95/1 94/94/1 88/88/1
f 96/96/1 95/95/1 88/88/1
f 88/88/1 89/89/1 96/96/1
f 6/6/1 92/92/1 89/89/1
f 90/90/1 97/97/1 98/98/1
f 90/90/1 98/98/1 99/99/1
f 90/90/1 99/99/1 100/100/1
f 90/90/1 100/100/1 101/101/1
f 93/93/1 6/6/1 102/102/1
f 102/102/1 6/6/1 103/103/1
f 90/90/1 101/101/1 91/91/1
f 91/91/1 104/104/1 6/6/1
f 103/103/1 6/6/1 105/105/1
f 105/105/1 6/6/1 5/5/1
f 104/104/1 4/4/1 6/6/1
f 106/106/1 98/98/1 14/14/1
f 98/98/1 97/97/1 107/107/1
f 108/108/1 97/97/1 109/109/1
f 97/97/1 110/110/1 111/111/1
f 97/97/1 111/111/1 112/112/1
f 113/113/1 106/106/1 14/14/1
f 97/97/1 108/108/1 114/114/1
f 115/115/1 113/113/1 14/14/1
f 97/97/1 114/114/1 107/107/1
f 97/97/1 112/112/1 116/116/1
f 97/97/1 116/116/1 117/117/1
f 118/118/1 115/115/1 14/14/1
f 119/119/1 118/118/1 14/14/1
f 98/98/1 107/107/1 14/14/1
f 97/97/1 117/117/1 120/120/1
f 97/97/1 120/120/1 109/109/1
f 121/121/1 119/119/1 14/14/1
f 122/122/1 121/121/1 14/14/1
f 123/123/1 122/122/1 14/14/1
f 124/124/1 123/123/1 14/14/1
f 107/107/1 125/125/1 14/14/1
f 126/126/1 124/124/1 14/14/1
f 125/125/1 127/127/1 15/15/1
f 125/125/1 15/15/1 14/14/1
f 127/127/1 128/128/1 15/15/1
f 129/129/1 130/130/1 15/15/1
f 128/128/1 129/129/1 15/15/1
f 14/14/1 9/9/1 126/126/1
f 9/9/1 28/28/1 85/85/1
f 85/85/1 94/94/1 9/9/1
f 94/94/1 131/131/1 9/9/1
f 131/131/1 132/132/1 9/9/1
f 126/126/1 9/9/1 133/133/1
f 133/133/1 9/9/1 8/8/1
f 132/132/1 7/7/1 9/9/1
f 74/74/1 73/73/1 134/134/1
f 73/73/1 135/135/1 134/134/1
f 135/135/1 136/136/1 137/137/1
f 134/134/1 135/135/1 137/137/1
f 138/138/1 139/139/1 140/140/1
f 139/139/1 141/141/1 142/142/1
f 143/143/1 139/139/1 142/142/1
f 136/136/1 138/138/1 144/144/1
f 137/137/1 136/136/1 144/144/1
f 139/139/1 143/143/1 145/145/1
f 141/141/1 146/146/1 147/147/1
f 146/146/1 148/148/1 149/149/1
f 140/140/1 144/144/1 138/138/1
f 142/142/1 141/141/1 150/150/1
f 148/148/1 12/12/1 11/11/1
f 150/150/1 141/141/1 151/151/1
f 12/12/1 152/152/1 10/10/1
f 145/145/1 140/140/1 139/139/1
f 151/151/1 141/141/1 147/147/1
f 152/152/1 153/153/1 154/154/1
f 153/153/1 67/67/1 155/155/1
f 67/67/1 66/66/1 155/155/1
f 147/147/1 146/146/1 149/149/1
f 153/153/1 155/155/1 154/154/1
f 154/154/1 10/10/1 152/152/1
f 149/149/1 148/148/1 11/11/1
f 15/15/1 130/130/1 156/156/1
f 156/156/1 13/13/1 15/15/1
f 17/17/7 29/29/7 9/9/7
f 9/9/2 14/14/2 16/16/2
f 20/20/8 26/26/8 18/18/8
f 26/26/9 27/27/9 157/157/9
f 18/18/10 26/26/10 158/158/10
f 157/157/1 159/159/1 158/158/1
f 157/157/11 158/158/11 26/26/11
f 19/19/1 160/160/1 20/20/1
f 21/21/12 157/157/12 22/22/12
f 21/21/1 20/20/1 161/161/1
f 20/20/1 160/160/1 161/161/1
f 159/159/1 157/157/1 25/25/1
f 157/157/1 21/21/1 25/25/1
f 21/21/1 161/161/1 24/24/1
f 26/26/13 29/29/13 17/17/13
f 44/44/1 42/42/1 162/162/1
f 42/42/14 17/17/14 162/162/14
f 17/17/15 163/163/15 164/164/15
f 163/163/15 165/165/15 166/166/15
f 164/164/16 163/163/16 167/167/16
f 165/165/1 168/168/1 169/169/1
f 170/170/17 162/162/17 17/17/17
f 171/171/17 170/170/17 17/17/17
f 164/164/15 171/171/15 17/17/15
f 167/167/18 163/163/18 172/172/18
f 172/172/1 163/163/1 173/173/1
f 32/32/1 174/174/1 175/175/1
f 174/174/1 50/50/1 176/176/1
f 173/173/1 163/163/1 177/177/1
f 168/168/1 32/32/1 178/178/1
f 177/177/1 163/163/1 179/179/1
f 179/179/1 163/163/1 166/166/1
f 50/50/1 49/49/1 180/180/1
f 50/50/1 180/180/1 181/181/1
f 50/50/1 181/181/1 182/182/1
f 50/50/1 182/182/1 176/176/1
f 166/166/1 165/165/1 183/183/1
f 183/183/1 165/165/1 184/184/1
f 174/174/1 176/176/1 185/185/1
f 174/174/1 185/185/1 186/186/1
f 184/184/1 165/165/1 169/169/1
f 169/169/1 168/168/1 187/187/1
f 174/174/1 186/186/1 188/188/1
f 174/174/1 188/188/1 189/189/1
f 187/187/1 168/168/1 190/190/1
f 190/190/1 168/168/1 139/139/1
f 174/174/1 189/189/1 175/175/1
f 191/191/1 168/168/1 178/178/1
f 141/141/1 139/139/1 168/168/1
f 191/191/1 141/141/1 168/168/1
f 32/32/1 175/175/1 192/192/1
f 32/32/1 192/192/1 193/193/1
f 31/31/1 178/178/1 32/32/1
f 32/32/1 193/193/1 30/30/1
f 50/50/1 174/174/1 194/194/1
f 174/174/1 195/195/1 196/196/1
f 50/50/1 194/194/1 197/197/1
f 110/110/1 97/97/1 50/50/1
f 198/198/1 110/110/1 50/50/1
f 199/199/1 198/198/1 50/50/1
f 200/200/1 199/199/1 50/50/1
f 201/201/1 200/200/1 50/50/1
f 197/197/1 201/201/1 50/50/1
f 194/194/1 174/174/1 202/202/1
f 202/202/1 174/174/1 203/203/1
f 195/195/19 204/204/19 14/14/19
f 203/203/1 174/174/1 196/196/1
f 205/205/20 163/163/20 206/206/20
f 163/163/6 17/17/6 207/207/6
f 206/206/21 163/163/21 207/207/21
f 204/204/21 205/205/21 208/208/21
f 196/196/1 195/195/1 209/209/1
f 17/17/6 210/210/6 207/207/6
f 209/209/1 195/195/1 211/211/1
f 211/211/1 195/195/1 14/14/1
f 208/208/6 33/33/6 14/14/6
f 205/205/6 206/206/6 208/208/6
f 14/14/6 204/204/6 208/208/6
f 35/35/1 211/211/1 14/14/1
f 14/14/1 13/13/1 212/212/1
f 14/14/1 212/212/1 213/213/1
f 14/14/1 213/213/1 34/34/1
f 36/36/6 210/210/6 17/17/6
