# Blender v2.93.4 OBJ File: 'kitchen.blend'
# www.blender.org
mtllib kitchen.mtl
usemtl floor
v 20.332 -2.119 4.177
v 21.776 -2.119 1.912
v 20.332 -2.119 1.912
v 11.968 -2.119 -8.202
v 4.190 -2.119 -11.424
v 0.969 -2.119 -8.202
v -10.650 -2.119 1.912
v -10.650 -2.119 4.177
v 0.969 -2.119 8.755
v 3.080 -2.119 8.755
v 21.776 -2.119 4.177
v -10.650 -2.119 -8.202
v 20.332 -2.119 -8.202
v 8.746 -2.119 -11.424
v 20.332 -2.119 8.755
v 9.748 -2.119 8.755
v 7.636 -2.119 8.755
v -10.650 -2.119 8.755
vT -0.983 0.000 0.182
vT 0.939 0.000 0.345
vT -0.696 0.000 -0.718
vT -0.783 0.000 -0.621
vT -0.965 0.000 -0.262
vT -0.836 0.000 0.549
vT -0.798 0.000 0.603
vT -0.688 0.000 -0.726
vT -0.579 0.000 -0.815
vT -0.992 0.000 0.123
vT 0.341 0.000 0.940
vT -0.147 0.000 0.989
vT 0.000 0.000 -1.000
vT -0.863 0.000 -0.505
vT 1.000 0.000 0.000
vT 1.000 0.000 0.000
vT 0.172 0.000 0.985
vT 0.000 0.000 -1.000
vt 0.51 0.65
vt 0.60 0.79
vt 0.51 0.79
vt 0.00 1.40
vt -0.47 1.60
vt -0.67 1.40
vt -1.37 0.79
vt -1.37 0.65
vt -0.67 0.37
vt -0.54 0.37
vt 0.60 0.65
vt -1.37 1.40
vt 0.51 1.40
vt -0.19 1.60
vt 0.51 0.37
vt -0.13 0.37
vt -0.26 0.37
vt -1.37 0.37
vn 0.00 1.00 0.00
o floor_Plane.003
f 1/1/1 2/2/1 3/3/1
f 4/4/1 5/5/1 6/6/1
f 7/7/1 1/1/1 3/3/1
f 8/8/1 9/9/1 10/10/1
f 1/1/1 11/11/1 2/2/1
f 6/6/1 12/12/1 7/7/1
f 7/7/1 3/3/1 6/6/1
f 3/3/1 13/13/1 4/4/1
f 4/4/1 14/14/1 5/5/1
f 3/3/1 4/4/1 6/6/1
f 7/7/1 8/8/1 1/1/1
f 15/15/1 1/1/1 16/16/1
f 1/1/1 8/8/1 10/10/1
f 16/16/1 1/1/1 17/17/1
f 8/8/1 18/18/1 9/9/1
f 10/10/1 17/17/1 1/1/1
