# Blender v2.93.4 OBJ File: 'kitchen.blend'
# www.blender.org
mtllib kitchen.mtl
usemtl letters
v -0.403 0.058 3.963
v -0.293 0.071 3.609
v -0.403 0.071 3.963
v -0.293 0.058 3.609
v 0.529 0.071 3.864
v 0.529 0.058 3.864
v 0.419 0.071 4.218
v 0.419 0.058 4.218
v 0.197 0.052 4.543
v 0.067 0.062 4.291
v 0.197 0.062 4.543
v 0.067 0.052 4.291
v 0.652 0.062 3.991
v 0.652 0.052 3.991
v 0.782 0.062 4.243
v 0.782 0.052 4.243
v 0.082 0.050 3.699
v 0.031 0.062 3.383
v 0.082 0.062 3.699
v 0.031 0.050 3.383
v 0.766 0.062 3.265
v 0.766 0.050 3.265
v 0.817 0.062 3.581
v 0.817 0.050 3.581
vT 0.297 0.000 -0.955
vT 0.955 0.000 0.297
vT 0.465 0.000 0.885
vT -0.465 0.000 -0.885
vT 0.465 0.000 0.885
vT -0.955 0.000 -0.297
vT -0.297 0.000 0.955
vT -0.465 0.000 -0.885
vT -0.456 0.000 -0.890
vT 0.890 0.000 -0.456
vT 0.952 0.000 0.307
vT -0.952 0.000 -0.307
vT 0.952 0.000 0.307
vT -0.890 0.000 0.456
vT 0.456 0.000 0.890
vT -0.952 0.000 -0.307
vT -0.159 0.000 -0.987
vT 0.987 0.000 -0.159
vT 0.810 0.000 0.586
vT -0.810 0.000 -0.586
vT 0.810 0.000 0.586
vT -0.987 0.000 0.159
vT 0.159 0.000 0.987
vT -0.810 0.000 -0.586
vt 0.11 0.68
vt 0.11 0.93
vt 0.11 0.68
vt 0.11 0.93
vt 0.89 0.93
vt 0.89 0.93
vt 0.89 0.68
vt 0.89 0.68
vt 0.10 0.39
vt 0.10 0.65
vt 0.10 0.39
vt 0.10 0.65
vt 0.90 0.65
vt 0.90 0.65
vt 0.90 0.39
vt 0.90 0.39
vt 0.10 0.07
vt 0.10 0.32
vt 0.10 0.07
vt 0.10 0.32
vt 0.90 0.32
vt 0.90 0.32
vt 0.90 0.07
vt 0.90 0.07
vn 0.95 0.00 0.30
vn -0.30 0.00 0.95
vn -0.95 0.00 -0.30
vn 0.30 0.00 -0.95
vn 0.00 -1.00 -0.00
vn 0.00 1.00 -0.00
vn 0.89 0.00 -0.46
vn 0.46 0.00 0.89
vn -0.89 0.00 0.46
vn -0.46 0.00 -0.89
vn 0.00 -1.00 -0.00
vn 0.00 1.00 0.00
vn 0.99 0.00 -0.16
vn 0.16 0.00 0.99
vn -0.99 0.00 0.16
vn -0.16 0.00 -0.99
vn 0.00 -1.00 0.00
vn 0.00 1.00 -0.00
o Cube
f 1/1/1 2/2/1 3/3/1
f 4/4/2 5/5/2 2/2/2
f 6/6/3 7/7/3 5/5/3
f 8/8/4 3/3/4 7/7/4
f 5/5/5 3/3/5 2/2/5
f 4/4/6 8/8/6 6/6/6
f 1/1/1 4/4/1 2/2/1
f 4/4/2 6/6/2 5/5/2
f 6/6/3 8/8/3 7/7/3
f 8/8/4 1/1/4 3/3/4
f 5/5/5 7/7/5 3/3/5
f 4/4/6 1/1/6 8/8/6
o Cube.018_Cube.022
f 9/9/7 10/10/7 11/11/7
f 12/12/8 13/13/8 10/10/8
f 14/14/9 15/15/9 13/13/9
f 16/16/10 11/11/10 15/15/10
f 13/13/11 11/11/11 10/10/11
f 12/12/12 16/16/12 14/14/12
f 9/9/7 12/12/7 10/10/7
f 12/12/8 14/14/8 13/13/8
f 14/14/9 16/16/9 15/15/9
f 16/16/10 9/9/10 11/11/10
f 13/13/11 15/15/11 11/11/11
f 12/12/12 9/9/12 16/16/12
o Cube.019_Cube.023
f 17/17/13 18/18/13 19/19/13
f 20/20/14 21/21/14 18/18/14
f 22/22/15 23/23/15 21/21/15
f 24/24/16 19/19/16 23/23/16
f 21/21/17 19/19/17 18/18/17
f 20/20/18 24/24/18 22/22/18
f 17/17/13 20/20/13 18/18/13
f 20/20/14 22/22/14 21/21/14
f 22/22/15 24/24/15 23/23/15
f 24/24/16 17/17/16 19/19/16
f 21/21/17 23/23/17 19/19/17
f 20/20/18 17/17/18 24/24/18
