# Blender v2.93.4 OBJ File: 'kitchen.blend'
# www.blender.org
mtllib kitchen.mtl
usemtl fridgeGasket
v -8.061 -1.783 2.540
v -8.370 0.907 2.540
v -8.370 -1.783 2.540
v -8.061 0.907 2.540
v -8.370 0.907 0.046
v -8.370 0.907 2.540
v -8.061 0.907 0.046
v -8.370 -1.783 0.046
v -8.370 0.907 0.046
v -8.061 -1.783 0.046
v -8.370 -1.783 2.540
v -8.370 -1.783 0.046
v -8.370 0.907 0.046
v -8.370 -1.783 2.540
v -8.370 0.907 2.540
v -8.061 0.907 2.540
v -8.061 -1.783 0.046
v -8.061 0.907 0.046
v -8.034 1.026 2.528
v -8.445 2.436 2.528
v -8.445 1.026 2.528
v -8.034 2.436 2.528
v -8.445 2.436 0.058
v -8.445 2.436 2.528
v -8.034 2.436 0.058
v -8.445 1.026 0.058
v -8.445 2.436 0.058
v -8.034 1.026 0.058
v -8.445 1.026 2.528
v -8.445 1.026 0.058
v -8.445 2.436 0.058
v -8.445 1.026 2.528
v -8.445 2.436 2.528
v -8.034 2.436 2.528
v -8.034 1.026 0.058
v -8.034 2.436 0.058
v -8.061 0.907 2.540
v -8.061 0.907 0.046
v -8.061 -1.783 0.046
v -8.061 -1.783 2.540
v -8.370 -1.783 0.046
v -8.061 -1.783 2.540
v -8.034 2.436 2.528
v -8.034 2.436 0.058
v -8.034 1.026 0.058
v -8.034 1.026 2.528
v -8.445 1.026 0.058
v -8.034 1.026 2.528
vT -0.707 0.707 0.000
vT -0.707 0.707 0.000
vT -1.000 0.000 0.000
vT -0.707 0.000 -0.707
vT -0.707 0.000 -0.707
vT -1.000 0.000 0.000
vT -0.707 -0.707 0.000
vT -0.707 -0.707 0.000
vT -1.000 0.000 0.000
vT -0.707 0.000 0.707
vT -0.707 0.000 0.707
vT -1.000 0.000 0.000
vT 0.000 -0.707 0.707
vT 0.000 -0.707 0.707
vT 0.000 0.000 1.000
vT -0.000 -0.707 -0.707
vT -0.000 -0.707 -0.707
vT -0.000 0.000 -1.000
vT -0.707 0.707 0.000
vT -0.707 0.707 0.000
vT -1.000 0.000 0.000
vT -0.707 0.000 -0.707
vT -0.707 0.000 -0.707
vT -1.000 0.000 0.000
vT -0.707 -0.707 0.000
vT -0.707 -0.707 0.000
vT -1.000 0.000 0.000
vT -0.707 0.000 0.707
vT -0.707 0.000 0.707
vT -1.000 0.000 0.000
vT 0.000 -0.707 0.707
vT 0.000 -0.707 0.707
vT 0.000 0.000 1.000
vT 0.000 -0.707 -0.707
vT 0.000 -0.707 -0.707
vT 0.000 0.000 -1.000
vT 0.000 1.000 0.000
vT -0.000 0.000 -1.000
vT 0.000 -1.000 0.000
vT 0.000 0.000 1.000
vT 0.000 -1.000 0.000
vT -0.000 -1.000 0.000
vT 0.000 1.000 0.000
vT 0.000 0.000 -1.000
vT 0.000 -1.000 0.000
vT 0.000 0.000 1.000
vT 0.000 -1.000 0.000
vT 0.000 -1.000 0.000
vt 1.00 0.00
vt 0.00 1.00
vt 0.00 0.00
vt 1.00 0.00
vt 0.00 1.00
vt 0.00 0.00
vt 1.00 0.00
vt 0.00 1.00
vt 0.00 0.00
vt 1.00 0.00
vt 0.00 1.00
vt 0.00 0.00
vt 1.00 0.00
vt 0.00 1.00
vt 0.00 0.00
vt 1.00 0.00
vt 0.00 1.00
vt 0.00 0.00
vt 1.00 0.00
vt 0.00 1.00
vt 0.00 0.00
vt 1.00 0.00
vt 0.00 1.00
vt 0.00 0.00
vt 1.00 0.00
vt 0.00 1.00
vt 0.00 0.00
vt 1.00 0.00
vt 0.00 1.00
vt 0.00 0.00
vt 1.00 0.00
vt 0.00 1.00
vt 0.00 0.00
vt 1.00 0.00
vt 0.00 1.00
vt 0.00 0.00
vt 1.00 1.00
vt 1.00 1.00
vt 1.00 1.00
vt 1.00 1.00
vt 1.00 1.00
vt 1.00 1.00
vt 1.00 1.00
vt 1.00 1.00
vt 1.00 1.00
vt 1.00 1.00
vt 1.00 1.00
vt 1.00 1.00
vn 0.00 0.00 1.00
vn 0.00 1.00 -0.00
vn 0.00 0.00 -1.00
vn 0.00 -1.00 0.00
vn -1.00 0.00 0.00
vn 1.00 0.00 -0.00
o fridge_Cube.017
f 1/1/1 2/2/1 3/3/1
f 4/4/2 5/5/2 6/6/2
f 7/7/3 8/8/3 9/9/3
f 10/10/4 11/11/4 12/12/4
f 13/13/5 14/14/5 15/15/5
f 16/16/6 17/17/6 18/18/6
f 19/19/1 20/20/1 21/21/1
f 22/22/2 23/23/2 24/24/2
f 25/25/3 26/26/3 27/27/3
f 28/28/4 29/29/4 30/30/4
f 31/31/5 32/32/5 33/33/5
f 34/34/6 35/35/6 36/36/6
f 1/1/1 37/37/1 2/2/1
f 4/4/2 38/38/2 5/5/2
f 7/7/3 39/39/3 8/8/3
f 10/10/4 40/40/4 11/11/4
f 13/13/5 41/41/5 14/14/5
f 16/16/6 42/42/6 17/17/6
f 19/19/1 43/43/1 20/20/1
f 22/22/2 44/44/2 23/23/2
f 25/25/3 45/45/3 26/26/3
f 28/28/4 46/46/4 29/29/4
f 31/31/5 47/47/5 32/32/5
f 34/34/6 48/48/6 35/35/6
