# Blender v2.93.4 OBJ File: 'kitchen.blend'
# www.blender.org
mtllib kitchen.mtl
usemtl stoveLabels
v -10.383 0.494 -1.091
v -10.384 0.494 -1.091
v -10.384 0.494 -0.882
v -10.383 0.494 -2.760
v -10.384 0.494 -2.760
v -10.384 0.494 -2.550
v -10.399 0.594 -2.760
v -10.399 0.594 -2.550
v -10.384 0.494 -1.302
v -10.399 0.594 -1.511
v -10.399 0.594 -1.302
v -10.383 0.494 -1.511
v -10.384 0.494 -1.511
v -10.399 0.594 -1.091
v -10.399 0.594 -0.882
v -10.384 0.494 -2.966
v -10.399 0.594 -3.176
v -10.399 0.594 -2.966
v -10.383 0.494 -3.176
v -10.384 0.494 -3.176
v -10.384 0.494 -0.782
v -10.338 0.189 -0.782
v -10.338 0.189 -1.199
v -10.383 0.494 -1.199
v -10.384 0.494 -2.451
v -10.338 0.189 -2.451
v -10.338 0.189 -2.867
v -10.383 0.494 -2.867
v -10.384 0.494 -1.202
v -10.338 0.189 -1.202
v -10.338 0.189 -1.618
v -10.383 0.494 -1.618
v -10.384 0.494 -2.867
v -10.338 0.189 -2.867
v -10.338 0.189 -3.283
v -10.383 0.494 -3.283
vT 0.008 0.000 -1.000
vT 0.097 -0.686 0.721
vT 0.102 -0.684 -0.722
vT 0.008 0.000 -1.000
vT 0.097 -0.686 0.721
vT 0.102 -0.684 -0.722
vT 0.139 -0.978 -0.157
vT 0.061 -0.431 -0.901
vT 0.102 -0.684 -0.722
vT 0.139 -0.978 -0.157
vT 0.061 -0.431 -0.901
vT 0.008 0.000 -1.000
vT 0.097 -0.686 0.721
vT 0.139 -0.978 -0.157
vT 0.061 -0.431 -0.901
vT 0.102 -0.684 -0.722
vT 0.139 -0.978 -0.157
vT 0.061 -0.431 -0.901
vT 0.008 0.000 -1.000
vT 0.097 -0.686 0.721
vT 1.000 0.000 0.000
vT 0.108 -0.694 -0.712
vT -0.001 0.007 -1.000
vT -0.145 0.989 0.000
vT 1.000 0.000 0.000
vT 0.108 -0.694 -0.712
vT -0.001 0.007 -1.000
vT -0.145 0.989 0.000
vT 1.000 0.000 0.000
vT 0.108 -0.694 -0.712
vT -0.001 0.007 -1.000
vT -0.145 0.989 0.000
vT 1.000 0.000 0.000
vT 0.108 -0.694 -0.712
vT -0.001 0.007 -1.000
vT -0.145 0.989 0.000
vt 0.74 0.75
vt 0.74 0.75
vt 0.25 0.75
vt 0.74 0.75
vt 0.74 0.75
vt 0.25 0.75
vt 0.74 1.00
vt 0.25 1.00
vt 0.25 0.75
vt 0.74 1.00
vt 0.25 1.00
vt 0.74 0.75
vt 0.74 0.75
vt 0.74 1.00
vt 0.25 1.00
vt 0.25 0.75
vt 0.74 1.00
vt 0.25 1.00
vt 0.74 0.75
vt 0.74 0.75
vt 0.00 0.75
vt 0.00 0.00
vt 1.00 0.00
vt 1.00 0.75
vt 0.00 0.75
vt 0.00 0.00
vt 1.00 0.00
vt 1.00 0.75
vt 0.00 0.75
vt 0.00 0.00
vt 1.00 0.00
vt 1.00 0.75
vt 0.00 0.75
vt 0.00 0.00
vt 1.00 0.00
vt 1.00 0.75
vn 0.84 0.55 0.00
vn 0.66 0.76 0.00
vn 0.99 0.15 0.00
vn 0.99 0.14 0.00
vn 0.99 0.15 -0.01
vn 0.99 0.15 0.00
vn 0.99 0.15 0.00
o stove_Torus.001
f 1/1/1 2/2/2 3/3/3
f 4/4/1 5/5/2 6/6/3
f 6/6/3 7/7/4 8/8/4
f 9/9/3 10/10/4 11/11/4
f 12/12/1 13/13/2 9/9/3
f 3/3/3 14/14/4 15/15/4
f 16/16/3 17/17/4 18/18/4
f 19/19/1 20/20/2 16/16/3
f 21/21/5 22/22/6 3/3/3
f 22/22/6 23/23/7 1/1/1
f 3/3/3 22/22/6 1/1/1
f 23/23/7 24/24/7 1/1/1
f 25/25/5 26/26/6 6/6/3
f 26/26/6 27/27/7 4/4/1
f 6/6/3 26/26/6 4/4/1
f 27/27/7 28/28/7 4/4/1
f 6/6/3 5/5/2 7/7/4
f 9/9/3 13/13/2 10/10/4
f 29/29/5 30/30/6 9/9/3
f 30/30/6 31/31/7 12/12/1
f 9/9/3 30/30/6 12/12/1
f 31/31/7 32/32/7 12/12/1
f 3/3/3 2/2/2 14/14/4
f 16/16/3 20/20/2 17/17/4
f 33/33/5 34/34/6 16/16/3
f 34/34/6 35/35/7 19/19/1
f 16/16/3 34/34/6 19/19/1
f 35/35/7 36/36/7 19/19/1
